<?xml version="1.0" encoding="UTF-8" standalone="no"?>
<!-- Created with Inkscape (http://www.inkscape.org/) -->

<svg
   xmlns:dc="http://purl.org/dc/elements/1.1/"
   xmlns:cc="http://creativecommons.org/ns#"
   xmlns:rdf="http://www.w3.org/1999/02/22-rdf-syntax-ns#"
   xmlns:svg="http://www.w3.org/2000/svg"
   xmlns="http://www.w3.org/2000/svg"
   xmlns:sodipodi="http://sodipodi.sourceforge.net/DTD/sodipodi-0.dtd"
   xmlns:inkscape="http://www.inkscape.org/namespaces/inkscape"
   width="30mm"
   height="30mm"
   viewBox="0 0 30 30"
   version="1.1"
   id="svg3855"
   inkscape:version="0.92.5 (2060ec1f9f, 2020-04-08)"
   sodipodi:docname="logo.svg">
  <defs
     id="defs3849" />
  <sodipodi:namedview
     id="base"
     pagecolor="#ffffff"
     bordercolor="#666666"
     borderopacity="1.0"
     inkscape:pageopacity="0.0"
     inkscape:pageshadow="2"
     inkscape:zoom="2.8"
     inkscape:cx="230.69049"
     inkscape:cy="106.56797"
     inkscape:document-units="mm"
     inkscape:current-layer="layer1"
     showgrid="false"
     inkscape:window-width="2488"
     inkscape:window-height="1376"
     inkscape:window-x="2632"
     inkscape:window-y="27"
     inkscape:window-maximized="1" />
  <metadata
     id="metadata3852">
    <rdf:RDF>
      <cc:Work
         rdf:about="">
        <dc:format>image/svg+xml</dc:format>
        <dc:type
           rdf:resource="http://purl.org/dc/dcmitype/StillImage" />
        <dc:title></dc:title>
      </cc:Work>
    </rdf:RDF>
  </metadata>
  <g
     inkscape:label="Layer 1"
     inkscape:groupmode="layer"
     id="layer1"
     transform="translate(0,-267)">
    <g
       transform="matrix(0.14409222,0,0,0.14409222,208.21326,261.58213)"
       id="g44">
      <g
         id="g42">
        <circle
           style="fill:#ff0000"
           cx="-1340.9"
           cy="141.7"
           r="104.1"
           id="circle32" />
        <g
           id="g40">
          <path
             style="fill:#ffffff"
             inkscape:connector-curvature="0"
             d="m -1294.6,143.4 15.9,-27.6 -7.5,-13.1 h -31.9 l 18.5,-32 c -5,-2.9 -10.4,-5.3 -16,-7.2 l -25.2,43.5 7.6,13.1 h 31.9 l -16,27.7 7.5,13.1 h 48.8 c 1.3,-5.6 2.1,-11.5 2.2,-17.5 z"
             id="path34" />
          <path
             style="fill:#ffffff"
             inkscape:connector-curvature="0"
             d="m -1348.4,210.4 h 15.1 l 16,-27.6 17.4,30.2 c 5.1,-2.9 9.9,-6.4 14.2,-10.3 l -24,-41.7 h -15.1 l -16,27.7 -16,-27.7 h -15.1 l -24,41.7 c 4.3,3.9 9.1,7.4 14.2,10.3 l 17.4,-30.2 z"
             id="path36" />
          <path
             style="fill:#ffffff"
             inkscape:connector-curvature="0"
             d="m -1364.4,147.8 -15.9,-27.7 h 31.9 l 7.6,-13.1 -25.2,-43.5 c -5.6,1.8 -11,4.2 -16,7.2 l 18.5,32 h -31.9 l -7.6,13.1 15.9,27.7 h -35.9 c 0.1,6 0.9,11.9 2.2,17.5 h 48.8 z"
             id="path38" />
        </g>
      </g>
    </g>
  </g>
</svg>
